<?xml version="1.0" encoding="UTF-8"?>
<svg width="360px" height="360px" viewBox="0 0 360 360" version="1.1" xmlns="http://www.w3.org/2000/svg" xmlns:xlink="http://www.w3.org/1999/xlink">
    <!-- Generator: Sketch 52.5 (67469) - http://www.bohemiancoding.com/sketch -->
    <title>Group</title>
    <desc>Created with Sketch.</desc>
    <defs>
        <linearGradient x1="50%" y1="0%" x2="50%" y2="100%" id="linearGradient-1">
            <stop stop-color="#757575" offset="0%"></stop>
            <stop stop-color="#424242" offset="100%"></stop>
        </linearGradient>
    </defs>
    <g id="Page-1" stroke="none" stroke-width="1" fill="none" fill-rule="evenodd">
        <g id="v1-light" transform="translate(-76.000000, -55.000000)" fill-rule="nonzero">
            <g id="Group" transform="translate(76.000000, 55.000000)">
                <rect id="Rectangle" stroke-opacity="0.01" stroke="#979797" stroke-width="0.01" x="0.005" y="0.005" width="359.99" height="359.99"></rect>
                <path d="M121.943005,182.399581 C114.170221,190.761073 104.079103,196.937958 92.6925054,199.90738 L92.510883,200.19394 C76.3800514,206.718492 65,222.53027 65,241 C65,265.300529 84.699471,285 109,285 C119.187243,285 128.565875,281.537925 136.023514,275.726158 C144.119602,267.306059 154.610852,261.205807 166.401308,258.52136 C158.905003,283.11084 136.04162,301 109,301 C75.862915,301 49,274.137085 49,241 C49,207.862915 75.862915,181 109,181 C113.443714,181 117.774599,181.483077 121.943005,182.399581 Z M193.598692,258.52136 C205.389148,261.205807 215.880398,267.306059 223.976486,275.726158 C231.434125,281.537925 240.812757,285 251,285 C275.300529,285 295,265.300529 295,241 C295,222.616351 283.725779,206.865938 267.714349,200.285771 C255.928796,197.418746 245.483097,191.128253 237.490095,182.527135 C241.832263,181.527951 246.354477,181 251,181 C284.137085,181 311,207.862915 311,241 C311,274.137085 284.137085,301 251,301 C223.95838,301 201.094997,283.11084 193.598692,258.52136 Z M223.867052,158.959811 C222.122792,153.285491 221.183956,147.258482 221.183956,141.012196 C221.183956,135.084767 222.029388,129.354799 223.606246,123.936298 C223.865923,122.00263 224,120.029169 224,118.024393 C224,93.7238637 204.300529,74.0243927 180,74.0243927 C155.699471,74.0243927 136,93.7238637 136,118.024393 C136,120.791879 136.42958,124.783748 137.28874,130 C137.924077,133.5297 138.255753,137.164882 138.255753,140.877531 C138.255753,146.993648 137.355639,152.899532 135.680655,158.469939 C125.940599,147.80302 120,133.607457 120,118.024393 C120,84.8873077 146.862915,58.0243927 180,58.0243927 C213.137085,58.0243927 240,84.8873077 240,118.024393 C240,133.847229 233.875182,148.239537 223.867052,158.959811 Z" id="Combined-Shape" fill="#BDBDBD"></path>
                <path d="M215.746815,122.316275 C215.914,120.908944 216,119.476711 216,118.024393 C216,98.1421417 199.882251,82.0243927 180,82.0243927 C160.117749,82.0243927 144,98.1421417 144,118.024393 C144,121.123306 144.391554,124.130767 145.127888,127 L145,127 L144.89483,127.173092 C145.787378,131.602376 146.255753,136.185256 146.255753,140.877531 C146.255753,171.938316 125.732248,198.205579 97.5064337,206.858124 L97.5141181,206.871145 C83.2639054,211.665101 73,225.133919 73,241 C73,260.882251 89.117749,277 109,277 C117.144834,277 124.657924,274.295184 130.690032,269.73479 C143.215413,256.939992 160.680464,249 180,249 C199.319536,249 216.784587,256.939992 229.30997,269.734793 C235.342076,274.295184 242.855166,277 251,277 C270.882251,277 287,260.882251 287,241 C287,226.154829 278.014471,213.408342 265.185506,207.902631 C235.297784,200.330736 213.183956,173.253947 213.183956,141.012196 C213.183956,134.532838 214.077037,128.26207 215.746815,122.316275 Z" id="Path" fill="url(#linearGradient-1)"></path>
            </g>
        </g>
    </g>
</svg>