<?xml version="1.0" encoding="UTF-8"?>
<svg width="512px" height="512px" viewBox="0 0 512 512" version="1.1" xmlns="http://www.w3.org/2000/svg" xmlns:xlink="http://www.w3.org/1999/xlink">
    <!-- Generator: Sketch 52.5 (67469) - http://www.bohemiancoding.com/sketch -->
    <title>v1-light</title>
    <desc>Created with Sketch.</desc>
    <defs>
        <linearGradient x1="50%" y1="0%" x2="50%" y2="100%" id="linearGradient-1">
            <stop stop-color="#757575" offset="0%"></stop>
            <stop stop-color="#424242" offset="100%"></stop>
        </linearGradient>
    </defs>
    <g id="v1-light" stroke="none" stroke-width="1" fill="none" fill-rule="evenodd">
        <rect fill="#FFFFFF" x="0" y="0" width="512" height="512"></rect>
        <g id="type" transform="translate(183.000000, 406.000000)" fill="#424242">
            <text id="CONNECT" font-family="Futura-Bold, Futura" font-size="28" font-weight="bold">
                <tspan x="0.256" y="29">CONNECT</tspan>
            </text>
            <path d="M55,44 L91,44 C95.418278,44 99,47.581722 99,52 L99,76 C99,80.418278 95.418278,84 91,84 L55,84 C50.581722,84 47,80.418278 47,76 L47,52 C47,47.581722 50.581722,44 55,44 Z M63,52 L55,52 L55,64 C55,70.627417 60.372583,76 67,76 C73.627417,76 79,70.627417 79,64 L79,52 L71,52 L71,64 C71,66.209139 69.209139,68 67,68 C64.790861,68 63,66.209139 63,64 L63,52 Z M83,52 L83,76 L91,76 L91,52 L83,52 Z" id="Combined-Shape" fill-rule="nonzero"></path>
        </g>
        <g id="Group" transform="translate(112.000000, 91.000000)" fill-rule="nonzero">
            <rect id="Rectangle" stroke-opacity="0.01" stroke="#979797" stroke-width="0.01" x="0.005" y="0.005" width="287.99" height="287.99"></rect>
            <path d="M85.9430046,146.399581 C78.170221,154.761073 68.0791033,160.937958 56.6925054,163.90738 L56.510883,164.19394 C40.3800514,170.718492 29,186.53027 29,205 C29,229.300529 48.699471,249 73,249 C83.1872428,249 92.5658748,245.537925 100.023514,239.726158 C108.119602,231.306059 118.610852,225.205807 130.401308,222.52136 C122.905003,247.11084 100.04162,265 73,265 C39.862915,265 13,238.137085 13,205 C13,171.862915 39.862915,145 73,145 C77.4437139,145 81.774599,145.483077 85.9430046,146.399581 Z M157.598692,222.52136 C169.389148,225.205807 179.880398,231.306059 187.976486,239.726158 C195.434125,245.537925 204.812757,249 215,249 C239.300529,249 259,229.300529 259,205 C259,186.616351 247.725779,170.865938 231.714349,164.285771 C219.928796,161.418746 209.483097,155.128253 201.490095,146.527135 C205.832263,145.527951 210.354477,145 215,145 C248.137085,145 275,171.862915 275,205 C275,238.137085 248.137085,265 215,265 C187.95838,265 165.094997,247.11084 157.598692,222.52136 Z M187.867052,122.959811 C186.122792,117.285491 185.183956,111.258482 185.183956,105.012196 C185.183956,99.0847669 186.029388,93.3547986 187.606246,87.936298 C187.865923,86.0026301 188,84.0291691 188,82.0243927 C188,57.7238637 168.300529,38.0243927 144,38.0243927 C119.699471,38.0243927 100,57.7238637 100,82.0243927 C100,84.7918786 100.42958,88.7837477 101.28874,94 C101.924077,97.5297004 102.255753,101.164882 102.255753,104.877531 C102.255753,110.993648 101.355639,116.899532 99.6806551,122.469939 C89.9405991,111.80302 84,97.6074568 84,82.0243927 C84,48.8873077 110.862915,22.0243927 144,22.0243927 C177.137085,22.0243927 204,48.8873077 204,82.0243927 C204,97.847229 197.875182,112.239537 187.867052,122.959811 Z" id="Combined-Shape" fill="#BDBDBD"></path>
            <path d="M179.746815,86.316275 C179.914,84.9089437 180,83.4767113 180,82.0243927 C180,62.1421417 163.882251,46.0243927 144,46.0243927 C124.117749,46.0243927 108,62.1421417 108,82.0243927 C108,85.1233058 108.391554,88.1307666 109.127888,91 L109,91 L108.89483,91.1730922 C109.787378,95.6023757 110.255753,100.185256 110.255753,104.877531 C110.255753,135.938316 89.7322477,162.205579 61.5064337,170.858124 L61.5141181,170.871145 C47.2639054,175.665101 37,189.133919 37,205 C37,224.882251 53.117749,241 73,241 C81.1448341,241 88.6579245,238.295184 94.6900324,233.73479 C107.215413,220.939992 124.680464,213 144,213 C163.319536,213 180.784587,220.939992 193.30997,233.734793 C199.342076,238.295184 206.855166,241 215,241 C234.882251,241 251,224.882251 251,205 C251,190.154829 242.014471,177.408342 229.185506,171.902631 C199.297784,164.330736 177.183956,137.253947 177.183956,105.012196 C177.183956,98.5328383 178.077037,92.2620704 179.746815,86.316275 Z" id="Path" fill="url(#linearGradient-1)"></path>
        </g>
    </g>
</svg>
